<svg xmlns="http://www.w3.org/2000/svg" viewBox="0 0 900 700" font-family="Segoe UI, Arial, sans-serif">
  <title>03  8=8-AB>;8: 83@>:0</title>
  <rect width="900" height="700" fill="#f5f2eb"/>
  <text x="40" y="36" font-size="22" font-weight="700">03  0:;04=>9 <8=8-AB>;8: 83@>:0</text>
  <text x="40" y="58" font-size="13" fill="#555">380 × 300 × 18 << · A;>B 30465B0 · :0@<0= · ?>4AB0:0==8: · :;8B</text>

  <!-- Top view -->
  <g transform="translate(80,100)">
    <text x="0" y="-10" font-size="14" font-weight="600">84 A25@EC</text>
    <rect x="0" y="0" width="380" height="300" fill="#e8d5b5" stroke="#5c4030" stroke-width="2" rx="3"/>
    
    <!-- A4 zone -->
    <rect x="20" y="40" width="210" height="240" fill="none" stroke="#4a90a4" stroke-width="1.5" stroke-dasharray="6 4"/>
    <text x="125" y="165" font-size="12" text-anchor="middle" fill="#4a90a4">7>=0 A4</text>
    <text x="125" y="182" font-size="10" text-anchor="middle" fill="#4a90a4">210 × 297</text>

    <!-- Phone slot -->
    <rect x="250" y="40" width="110" height="8" fill="#3d2b1f" rx="1"/>
    <text x="305" y="30" font-size="11" text-anchor="middle" fill="#333">A;>B 8×120</text>

    <!-- Dice pocket -->
    <rect x="250" y="70" width="80" height="80" fill="#c4b090" stroke="#5c4030" stroke-width="1" rx="2"/>
    <text x="290" y="115" font-size="11" text-anchor="middle" fill="#333">:0@<0=</text>
    <text x="290" y="130" font-size="10" text-anchor="middle" fill="#555">80×80×15</text>

    <!-- Cup holder -->
    <circle cx="305" cy="230" r="42" fill="none" stroke="#888" stroke-width="3"/>
    <circle cx="305" cy="230" r="36" fill="#c0c0c0" stroke="#666" stroke-width="1"/>
    <circle cx="305" cy="230" r="28" fill="#f5f2eb"/>
    <text x="305" y="285" font-size="11" text-anchor="middle" fill="#333">Ø9095 =5@6.</text>

    <!-- Outer dims -->
    <line x1="0" y1="320" x2="380" y2="320" stroke="#333" stroke-width="1"/>
    <text x="190" y="338" font-size="13" text-anchor="middle" font-weight="600">380</text>
    <line x1="400" y1="0" x2="400" y2="300" stroke="#333" stroke-width="1"/>
    <text x="418" y="150" font-size="13" font-weight="600">300</text>
  </g>

  <!-- Side view with cleat -->
  <g transform="translate(80,500)">
    <text x="0" y="-10" font-size="14" font-weight="600">84 A1>:C · :;8B =0 @59:5</text>
    <!-- Rail -->
    <rect x="100" y="0" width="80" height="28" fill="#c4a574" stroke="#5c4030" stroke-width="1.5"/>
    <text x="140" y="-4" font-size="10" text-anchor="middle" fill="#555">@59:0 AB>;0</text>
    <!-- Tray -->
    <rect x="60" y="-2" width="160" height="14" fill="#e8d5b5" stroke="#5c4030" stroke-width="1.5"/>
    <!-- Cleat C shape -->
    <path d="M175,12 L175,40 L95,40 L95,12 L108,12 L108,28 L162,28 L162,12 Z" fill="#d4b896" stroke="#c0392b" stroke-width="1.5"/>
    <text x="200" y="35" font-size="11" fill="#c0392b">:;8B (:@N:)</text>
    <text x="60" y="70" font-size="11" fill="#444">0:;04:0 A=8<05BAO 225@E-=0@C6C. 57 28=B>2 2 :0@:0A.</text>
  </g>

  <!-- Qty note -->
  <text x="520" y="120" font-size="13" fill="#333">><?;5:B: ×8 HB.</text>
  <text x="520" y="145" font-size="12" fill="#555">@8 3 83@>:0E  25H05< 3.</text>
  <text x="520" y="168" font-size="12" fill="#555">$@570: ?07 A;>B0, :0@<0=,</text>
  <text x="520" y="188" font-size="12" fill="#555">>B25@AB85 ?>4AB0:0==8:0</text>
  <text x="520" y="208" font-size="12" fill="#555">:>@>=:>9 Ø9395.</text>
</svg>
