<svg xmlns="http://www.w3.org/2000/svg" viewBox="0 0 900 580" font-family="Segoe UI, Arial, sans-serif">
  <title>07  #75; :;8B0</title>
  <rect width="900" height="580" fill="#f5f2eb"/>
  <text x="40" y="36" font-size="22" font-weight="700">07  #75; :@5?;5=8O =0:;04:8 (:;8B)</text>
  <text x="40" y="58" font-size="13" fill="#555">@>D8;L @59:8 8 :@N:0 · 157 28=B>2 2 :0@:0A</text>

  <g transform="translate(80,120)">
    <!-- Rail cross section large -->
    <rect x="200" y="80" width="160" height="70" fill="#c4a574" stroke="#5c4030" stroke-width="2"/>
    <text x="280" y="120" font-size="13" text-anchor="middle" fill="#3d2b1f">@59:0</text>
    <text x="280" y="138" font-size="11" text-anchor="middle" fill="#555">B>;I8=0 ?0:5B0 ~40</text>

    <!-- Tray deck -->
    <rect x="80" y="78" width="320" height="22" fill="#e8d5b5" stroke="#5c4030" stroke-width="2"/>
    <text x="140" y="94" font-size="11" fill="#3d2b1f">=0:;04:0 18</text>

    <!-- Cleat -->
    <path d="M300,100 L300,175 L200,175 L200,100 L220,100 L220,155 L280,155 L280,100 Z"
          fill="#d4b896" stroke="#c0392b" stroke-width="2"/>
    <text x="250" y="195" font-size="12" text-anchor="middle" fill="#c0392b" font-weight="600">:;8B</text>

    <!-- Clearance arrows -->
    <line x1="200" y1="100" x2="200" y2="155" stroke="#333" stroke-width="1"/>
    <text x="185" y="130" font-size="11" text-anchor="end">707>@ 12</text>

    <line x1="220" y1="175" x2="280" y2="175" stroke="#333"/>
    <text x="250" y="215" font-size="11" text-anchor="middle">70E20B e 45 << ?> 3;C18=5</text>

    <!-- Dims rail thickness -->
    <line x1="380" y1="80" x2="380" y2="150" stroke="#333"/>
    <text x="400" y="120" font-size="12">~40</text>
    <line x1="200" y1="50" x2="360" y2="50" stroke="#333"/>
    <text x="280" y="42" font-size="12" text-anchor="middle">H8@8=0 @59:8 200 (C <0AB5@0 350)</text>
  </g>

  <g transform="translate(80,400)">
    <text font-size="14" font-weight="600">73>B>2;5=85 :;8B0</text>
    <text y="24" font-size="12" fill="#444">1. 25 ?>;>AK D0=5@K 18 <<: 3>@87>=B0;L=0O «?>;:0» + 25@B8:0;L=0O «3C10».</text>
    <text y="46" font-size="12" fill="#444">2. !:;58BL / ABO=CBL :>=D8@<0B0<8 2 -?@>D8;L ?>4 B>;I8=C @59:8 + 12 <<.</text>
    <text y="68" font-size="12" fill="#444">3. @8:@CB8BL A=87C : =0:;04:5 (28=BK 4Ч30 A=87C 225@E, ?>B09).</text>
    <text y="90" font-size="12" fill="#444">4. @>9B8AL 2>9;>G=K<8 =0:;59:0<8 2=CB@8 :;8B0  =5 F0@0?05B @59:C.</text>
    <text y="112" font-size="12" fill="#444">;LB5@=0B820: 0;N<8=852K9 ?@>D8;L C-channel  4>@>65, B>=LH5, 4>;3>25G=55.</text>
  </g>
</svg>
